<?xml version="1.0" standalone="no"?>
<!DOCTYPE svg PUBLIC "-//W3C//DTD SVG 20010904//EN"
 "http://www.w3.org/TR/2001/REC-SVG-20010904/DTD/svg10.dtd">
<svg version="1.0" xmlns="http://www.w3.org/2000/svg"
 width="496.000000pt" height="496.000000pt" viewBox="0 0 496.000000 496.000000"
 preserveAspectRatio="xMidYMid meet">
<metadata>
Created by potrace 1.11, written by Peter Selinger 2001-2013
</metadata>
<g transform="translate(0.000000,496.000000) scale(0.100000,-0.100000)"
fill="#000000" stroke="none">
<path d="M2700 4896 c0 -9 37 -117 87 -254 25 -68 46 -129 47 -135 1 -7 7 -25
13 -42 15 -38 55 -183 58 -212 2 -11 6 -31 10 -43 7 -21 5 -22 -32 -16 -132
20 -378 26 -498 12 -93 -11 -128 -16 -155 -22 -14 -3 -36 -8 -50 -10 -343 -61
-734 -271 -1009 -541 l-85 -83 -95 52 c-53 28 -97 55 -99 60 -2 4 -8 8 -13 8
-9 0 -118 72 -145 95 -6 6 -29 24 -50 40 -44 34 -105 87 -182 160 -65 61 -73
65 -63 27 24 -82 124 -200 242 -284 88 -64 207 -151 222 -163 9 -8 20 -15 23
-15 2 0 10 -4 17 -10 7 -5 25 -20 41 -33 l29 -24 -39 -55 -40 -56 -93 43 c-51
24 -98 48 -104 54 -6 6 -15 11 -19 11 -11 0 -137 80 -346 218 -95 63 -176 112
-179 108 -13 -13 325 -330 487 -457 30 -23 57 -46 58 -51 2 -4 10 -8 17 -8 7
0 15 -4 17 -8 2 -4 17 -18 35 -30 l32 -22 -64 -133 c-137 -288 -199 -554 -199
-867 -1 -113 9 -260 19 -310 3 -14 8 -40 11 -59 29 -176 109 -406 202 -581 41
-78 169 -272 209 -317 15 -18 39 -47 53 -64 14 -18 42 -50 63 -70 20 -21 37
-42 37 -46 0 -5 10 -13 22 -18 13 -6 28 -21 35 -35 7 -14 13 -21 13 -16 0 5 6
3 14 -4 8 -6 14 -17 12 -23 -1 -7 -1 -9 1 -4 8 13 25 7 20 -8 -4 -8 -1 -17 5
-21 7 -4 8 -3 4 4 -13 21 8 12 41 -17 18 -15 29 -31 26 -35 -4 -4 -1 -4 8 -1
8 3 25 -4 37 -15 12 -11 46 -35 77 -54 30 -18 52 -36 48 -39 -3 -4 4 -7 16 -7
13 0 37 -14 54 -32 17 -18 27 -27 23 -20 -10 18 4 15 42 -8 18 -11 39 -20 46
-20 8 0 16 -5 18 -11 2 -5 10 -11 18 -13 8 -1 33 -10 55 -20 22 -10 96 -36
165 -58 69 -22 132 -42 140 -45 8 -3 26 -7 40 -8 14 -2 36 -6 50 -9 36 -9 85
-17 139 -22 25 -3 57 -7 71 -8 14 -2 31 -4 38 -5 7 0 10 -7 7 -13 -4 -7 -1 -6
7 3 9 10 22 13 43 9 17 -3 54 -5 83 -4 32 1 52 -3 52 -10 0 -8 2 -8 8 0 10 16
154 26 145 10 -4 -6 1 -4 11 4 22 17 76 22 93 8 7 -5 18 -8 25 -5 8 4 7 6 -4
6 -10 1 -18 4 -18 9 0 7 31 12 102 15 20 1 34 5 31 9 -2 5 -1 8 4 9 4 0 16 2
26 4 10 2 15 -1 11 -8 -3 -7 1 -4 9 6 9 10 17 17 19 16 1 -1 14 1 27 6 16 5
26 3 32 -6 7 -11 9 -11 9 2 0 10 11 19 25 21 16 3 22 1 19 -6 -3 -6 1 -3 9 7
8 10 31 21 51 24 20 3 36 10 36 14 0 5 9 9 19 9 11 0 23 5 26 10 9 15 27 12
20 -2 -4 -7 -1 -6 7 3 12 15 96 57 109 55 3 -1 13 7 23 16 19 20 51 25 40 6
-4 -7 -3 -8 5 -4 6 4 9 11 6 16 -7 12 32 33 45 25 6 -4 9 -1 8 5 -2 6 21 25
51 41 30 16 50 29 46 29 -4 0 16 16 45 35 58 39 61 40 57 23 -1 -7 4 -13 12
-13 8 0 15 6 17 13 1 7 0 8 -3 2 -2 -5 -8 -10 -13 -10 -13 0 -5 27 15 49 15
17 21 19 33 8 13 -10 14 -9 8 1 -5 8 -1 21 10 33 18 21 40 26 28 7 -4 -7 -3
-8 5 -4 6 4 8 12 5 18 -9 15 19 30 29 15 5 -8 7 -5 5 8 -2 12 2 19 10 17 8 -1
11 1 8 6 -5 8 10 27 46 58 7 7 26 28 43 47 16 19 33 33 37 31 5 -3 8 4 8 15 0
12 4 21 9 21 6 0 8 -10 6 -21 -3 -12 -2 -26 1 -30 6 -11 34 0 34 13 0 6 -6 6
-14 -2 -12 -9 -15 -8 -13 10 1 14 7 20 21 18 10 -2 20 3 22 10 1 7 0 8 -2 3
-5 -10 -44 -3 -44 8 0 4 9 13 19 21 11 7 18 17 15 21 -2 4 5 10 16 14 11 4 18
11 15 16 -4 5 1 12 9 15 9 3 13 10 10 15 -3 5 2 12 10 15 9 3 13 11 9 17 -4 6
0 8 10 4 10 -3 17 -2 17 3 0 6 -5 10 -11 10 -5 0 -7 5 -4 10 4 6 11 7 17 4 6
-4 8 -2 5 3 -4 6 2 22 13 36 11 14 20 30 20 35 0 6 3 12 8 14 4 2 28 44 54 93
28 53 52 89 60 87 10 -3 10 -1 1 9 -10 10 -9 15 5 26 9 8 12 12 5 9 -7 -4 -9
1 -6 14 3 11 11 20 19 20 7 0 11 6 8 14 -6 15 12 56 24 56 4 0 8 -9 9 -19 1
-14 -3 -18 -15 -14 -14 4 -14 3 -2 -5 8 -6 18 -9 22 -6 12 8 3 45 -13 54 -11
8 -10 12 6 25 11 9 15 14 8 11 -7 -4 -9 1 -6 14 7 26 12 25 23 -2 6 -16 9 -18
9 -7 1 9 -6 22 -14 29 -10 9 -12 16 -5 25 9 11 50 170 53 207 1 10 5 18 10 18
5 0 7 6 4 14 -4 9 2 13 18 14 13 0 23 -6 22 -12 -1 -6 4 -11 12 -11 8 0 15 6
17 13 1 7 0 8 -3 2 -7 -14 -24 -13 -20 2 1 7 -8 13 -21 14 -28 2 -43 14 -17
14 18 0 18 0 0 13 -13 10 -15 16 -6 21 6 4 9 12 5 17 -3 6 2 9 12 7 11 -2 24
-12 31 -23 7 -11 12 -15 12 -10 1 17 -18 40 -31 40 -20 0 -23 61 -4 68 18 7
22 -8 6 -16 -6 -3 -5 -4 2 -3 22 4 15 31 -6 28 -17 -3 -18 -1 -7 11 8 11 9 17
1 22 -6 3 -7 11 -4 17 11 17 12 268 2 268 -5 0 -7 4 -3 10 3 5 13 7 23 4 12
-4 11 -2 -3 8 -21 13 -26 30 -12 44 4 4 7 12 7 18 0 6 -5 4 -10 -4 -7 -11 -10
-4 -10 26 0 22 -3 44 -6 47 -4 4 -9 26 -11 49 -4 47 -9 83 -12 83 -2 0 -4 7
-6 15 -1 8 -6 27 -10 41 -4 16 -2 30 4 33 6 4 11 13 11 19 0 7 -4 6 -10 -3 -8
-12 -10 -12 -14 3 -4 9 -9 25 -13 35 -3 9 -6 20 -5 24 1 4 -7 26 -17 50 -10
24 -16 49 -14 56 3 6 -1 12 -7 12 -10 0 -9 4 0 15 7 9 10 18 6 22 -3 3 -6 1
-6 -5 0 -7 -5 -12 -10 -12 -6 0 -9 3 -8 8 0 4 -2 15 -7 26 -5 11 -4 26 2 35 8
13 6 23 -9 42 l-20 24 16 -27 c9 -16 12 -29 6 -33 -5 -3 -16 7 -24 23 -12 23
-12 32 -3 41 9 10 8 11 -7 5 -13 -5 -17 -4 -13 3 4 6 3 13 -2 15 -4 1 -12 14
-16 27 -5 18 -4 22 5 16 9 -5 11 -4 6 4 -4 6 -11 9 -16 6 -5 -3 -14 4 -20 16
-10 17 -9 20 2 14 7 -4 3 2 -10 14 -12 12 -19 27 -16 33 4 7 2 8 -4 4 -7 -4
-12 -3 -12 2 0 5 -21 41 -47 78 -104 155 -211 276 -373 424 -117 108 -338 243
-545 334 -42 19 -64 35 -73 54 -6 15 -22 43 -34 62 -12 19 -22 37 -23 40 -1
13 -187 285 -247 362 -37 48 -68 90 -68 92 0 3 -10 16 -22 29 -19 19 -85 94
-143 160 -16 19 -45 40 -45 33z"/>
<path d="M4400 3116 c0 -2 8 -10 18 -17 15 -13 16 -12 3 4 -13 16 -21 21 -21
13z"/>
<path d="M4500 2920 c0 -5 5 -10 11 -10 5 0 7 5 4 10 -3 6 -8 10 -11 10 -2 0
-4 -4 -4 -10z"/>
<path d="M4510 2890 c-9 -6 -10 -10 -3 -10 6 0 15 5 18 10 8 12 4 12 -15 0z"/>
<path d="M4535 2870 c6 -10 4 -12 -8 -7 -10 3 -17 2 -17 -3 0 -13 27 -13 35
-1 3 5 0 13 -6 17 -8 5 -9 3 -4 -6z"/>
<path d="M4539 2828 c-8 -25 -2 -51 13 -59 12 -6 18 -6 18 1 0 5 -6 10 -14 10
-16 0 -16 31 -1 42 6 5 5 8 -2 8 -7 0 -13 -1 -14 -2z"/>
<path d="M4570 2739 c0 -5 5 -7 10 -4 6 3 10 8 10 11 0 2 -4 4 -10 4 -5 0 -10
-5 -10 -11z"/>
<path d="M4584 2715 c-4 -8 -10 -13 -14 -10 -5 3 -11 1 -14 -4 -4 -5 1 -8 10
-7 15 2 42 36 29 36 -3 0 -8 -7 -11 -15z"/>
<path d="M4593 2685 c-3 -9 -3 -18 -1 -21 3 -3 8 4 11 16 6 23 -1 27 -10 5z"/>
<path d="M4570 2640 c0 -5 5 -10 10 -10 6 0 10 5 10 10 0 6 -4 10 -10 10 -5 0
-10 -4 -10 -10z"/>
<path d="M4615 2620 c-3 -5 -1 -10 4 -10 6 0 11 5 11 10 0 6 -2 10 -4 10 -3 0
-8 -4 -11 -10z"/>
<path d="M4586 2605 c-9 -26 -7 -32 5 -12 6 10 9 21 6 23 -2 3 -7 -2 -11 -11z"/>
<path d="M4596 2573 c-6 -14 -5 -15 5 -6 7 7 10 15 7 18 -3 3 -9 -2 -12 -12z"/>
<path d="M4614 2559 c-10 -17 9 -30 26 -18 13 9 12 10 -2 5 -20 -6 -25 10 -5
17 9 4 9 6 0 6 -6 1 -15 -4 -19 -10z"/>
<path d="M4596 2515 c4 -8 8 -15 10 -15 2 0 4 7 4 15 0 8 -4 15 -10 15 -5 0
-7 -7 -4 -15z"/>
<path d="M4630 2511 c0 -9 30 -24 36 -18 2 1 -6 8 -16 15 -11 7 -20 8 -20 3z"/>
<path d="M4633 2474 c15 -8 25 -19 22 -24 -9 -14 -36 -12 -32 1 1 6 -4 13 -11
15 -7 1 -8 0 -2 -3 5 -2 8 -9 4 -14 -9 -15 25 -22 41 -9 21 17 19 25 -10 38
-37 17 -45 14 -12 -4z"/>
<path d="M4659 2423 c-1 -5 -1 -15 0 -23 1 -9 -7 -16 -19 -17 -18 -2 -19 1
-10 13 8 8 8 14 2 14 -13 0 -24 -28 -13 -34 17 -11 46 2 46 20 0 10 5 22 10
26 6 5 5 8 -2 8 -7 0 -14 -3 -14 -7z"/>
<path d="M4670 2355 c0 -8 4 -15 10 -15 5 0 7 7 4 15 -4 8 -8 15 -10 15 -2 0
-4 -7 -4 -15z"/>
<path d="M4636 2345 c-9 -26 -7 -32 5 -12 6 10 9 21 6 23 -2 3 -7 -2 -11 -11z"/>
<path d="M4650 2326 c0 -2 7 -7 16 -10 8 -3 12 -2 9 4 -6 10 -25 14 -25 6z"/>
<path d="M4626 2299 c2 -4 10 -6 17 -3 7 2 13 -4 14 -16 1 -11 -2 -18 -6 -16
-4 3 -13 0 -21 -5 -11 -7 -8 -8 10 -6 34 5 36 51 3 53 -13 1 -20 -2 -17 -7z"/>
<path d="M4681 2284 c0 -11 3 -14 6 -6 3 7 2 16 -1 19 -3 4 -6 -2 -5 -13z"/>
<path d="M4690 2241 c0 -11 4 -22 9 -25 4 -3 6 6 3 19 -5 30 -12 33 -12 6z"/>
<path d="M4670 2224 c0 -4 7 -16 17 -26 15 -17 15 -18 -6 -18 -12 0 -20 4 -16
9 3 6 -4 15 -15 21 -13 7 -20 7 -20 0 0 -5 7 -10 15 -10 8 0 14 -5 13 -12 -4
-14 31 -23 42 -11 5 4 0 19 -11 32 -10 13 -19 20 -19 15z"/>
<path d="M4635 2160 c27 -12 43 -12 25 0 -8 5 -22 9 -30 9 -10 0 -8 -3 5 -9z"/>
<path d="M4624 2135 c11 -8 22 -12 25 -9 6 6 -19 24 -34 24 -5 -1 -1 -7 9 -15z"/>
<path d="M4695 2140 c-3 -5 -1 -10 4 -10 6 0 11 5 11 10 0 6 -2 10 -4 10 -3 0
-8 -4 -11 -10z"/>
<path d="M4671 2124 c0 -11 3 -14 6 -6 3 7 2 16 -1 19 -3 4 -6 -2 -5 -13z"/>
<path d="M4690 2111 c0 -6 4 -13 10 -16 6 -3 7 1 4 9 -7 18 -14 21 -14 7z"/>
<path d="M4616 2101 c-3 -5 2 -15 12 -22 15 -13 16 -12 4 3 -12 15 -11 17 7
15 13 -1 19 -8 18 -20 -1 -14 5 -21 23 -23 18 -3 21 -2 10 5 -8 5 -18 7 -22 5
-4 -3 -7 5 -5 17 1 15 -4 23 -20 25 -12 2 -24 0 -27 -5z"/>
<path d="M4687 2079 c7 -7 15 -10 18 -7 3 3 -2 9 -12 12 -14 6 -15 5 -6 -5z"/>
<path d="M4619 2055 c22 -43 30 -51 28 -28 0 12 -3 20 -6 18 -2 -3 -10 3 -18
13 -13 16 -13 15 -4 -3z"/>
<path d="M4668 2033 c7 -3 16 -2 19 1 4 3 -2 6 -13 5 -11 0 -14 -3 -6 -6z"/>
<path d="M4701 2026 c-9 -11 -9 -16 1 -22 7 -4 10 -4 6 1 -4 4 -3 14 3 22 6 7
9 13 6 13 -2 0 -10 -6 -16 -14z"/>
<path d="M4660 2000 c0 -5 5 -10 10 -10 6 0 10 5 10 10 0 6 -4 10 -10 10 -5 0
-10 -4 -10 -10z"/>
<path d="M4630 1980 c0 -5 5 -10 10 -10 6 0 10 5 10 10 0 6 -4 10 -10 10 -5 0
-10 -4 -10 -10z"/>
<path d="M4695 1980 c3 -5 8 -10 11 -10 2 0 4 5 4 10 0 6 -5 10 -11 10 -5 0
-7 -4 -4 -10z"/>
<path d="M4668 1963 c7 -3 16 -2 19 1 4 3 -2 6 -13 5 -11 0 -14 -3 -6 -6z"/>
<path d="M4698 1954 c-4 -3 -14 -7 -25 -8 -26 -4 -24 -47 4 -57 17 -6 21 -5
17 6 -3 8 -11 12 -18 9 -6 -2 -12 5 -13 16 -1 11 2 18 6 16 4 -3 17 1 27 9 10
8 16 15 13 15 -3 0 -8 -3 -11 -6z"/>
<path d="M4611 1885 c4 -3 19 -8 35 -11 16 -3 26 -2 23 1 -4 3 -19 8 -35 11
-16 3 -26 2 -23 -1z"/>
<path d="M4676 1863 c-12 -12 -6 -31 12 -38 14 -5 15 -4 5 6 -18 18 -16 30 2
23 8 -4 15 -4 15 -1 0 8 -28 16 -34 10z"/>
<path d="M4590 1820 c0 -5 5 -10 10 -10 6 0 10 5 10 10 0 6 -4 10 -10 10 -5 0
-10 -4 -10 -10z"/>
<path d="M4630 1809 c-14 -10 -20 -19 -15 -20 6 0 -1 -5 -15 -10 l-25 -8 25 2
c14 1 24 7 23 13 -1 5 7 16 18 22 17 11 20 10 17 -5 -2 -10 -10 -23 -18 -30
-8 -7 -10 -13 -5 -13 6 0 4 -4 -4 -9 -15 -10 -23 -39 -15 -53 3 -4 16 -1 29 8
14 9 23 20 20 24 -3 5 2 11 10 13 11 3 10 4 -2 3 -10 -1 -17 -7 -16 -12 1 -6
-7 -16 -18 -22 -17 -11 -20 -10 -17 5 2 10 10 23 18 30 8 7 11 13 5 13 -5 0
-4 4 4 9 16 10 25 47 13 55 -4 2 -19 -4 -32 -15z"/>
<path d="M4570 1800 c0 -5 5 -10 11 -10 5 0 7 5 4 10 -3 6 -8 10 -11 10 -2 0
-4 -4 -4 -10z"/>
<path d="M4567 1759 c7 -7 15 -10 18 -7 3 3 -2 9 -12 12 -14 6 -15 5 -6 -5z"/>
<path d="M4556 1723 c-6 -14 -5 -15 5 -6 7 7 10 15 7 18 -3 3 -9 -2 -12 -12z"/>
<path d="M4591 1724 c0 -11 3 -14 6 -6 3 7 2 16 -1 19 -3 4 -6 -2 -5 -13z"/>
<path d="M4560 1698 c-12 -8 -12 -9 2 -5 9 3 19 1 22 -6 3 -9 5 -9 5 0 1 18
-13 23 -29 11z"/>
<path d="M4665 1700 c-3 -5 -3 -14 0 -20 3 -5 2 -10 -3 -10 -16 0 -23 -30 -11
-48 9 -15 10 -15 5 2 -4 10 -1 25 6 33 6 8 12 23 13 34 2 21 -1 24 -10 9z"/>
<path d="M4600 1677 c0 -9 -6 -16 -12 -14 -8 1 -13 -8 -13 -23 0 -15 5 -24 13
-22 6 1 12 -5 12 -13 0 -8 5 -15 10 -15 7 0 7 7 0 20 -6 11 -15 18 -21 15 -5
-4 -9 3 -9 15 0 12 5 18 10 15 11 -7 26 22 16 32 -3 4 -6 -1 -6 -10z"/>
<path d="M4635 1679 c-4 -6 -5 -12 -2 -15 2 -3 7 2 10 11 7 17 1 20 -8 4z"/>
<path d="M4610 1640 c0 -5 5 -10 10 -10 6 0 10 5 10 10 0 6 -4 10 -10 10 -5 0
-10 -4 -10 -10z"/>
<path d="M4537 1614 c5 -12 3 -15 -6 -9 -10 6 -11 3 -3 -12 11 -19 48 -28 57
-13 2 4 -3 14 -13 21 -15 13 -16 12 -4 -3 12 -15 11 -17 -7 -15 -15 1 -19 6
-16 18 3 10 1 20 -4 24 -7 4 -8 -1 -4 -11z"/>
<path d="M4633 1595 c0 -14 3 -25 8 -25 4 0 6 10 4 21 -6 32 -12 34 -12 4z"/>
<path d="M4598 1563 c7 -3 16 -2 19 1 4 3 -2 6 -13 5 -11 0 -14 -3 -6 -6z"/>
<path d="M4550 1549 c0 -5 5 -7 10 -4 6 3 10 8 10 11 0 2 -4 4 -10 4 -5 0 -10
-5 -10 -11z"/>
<path d="M4576 1542 c-2 -4 2 -16 10 -27 8 -10 14 -14 14 -9 0 6 -6 16 -12 23
-11 10 -9 12 7 9 11 -1 26 -10 33 -18 11 -13 12 -12 3 5 -9 20 -46 31 -55 17z"/>
<path d="M4530 1520 c0 -5 5 -10 10 -10 6 0 10 5 10 10 0 6 -4 10 -10 10 -5 0
-10 -4 -10 -10z"/>
<path d="M4556 1505 c-9 -26 -7 -32 5 -12 6 10 9 21 6 23 -2 3 -7 -2 -11 -11z"/>
<path d="M4615 1500 c6 -10 -6 -14 -35 -11 -13 2 -13 0 -1 -8 17 -11 55 5 46
20 -4 5 -8 9 -11 9 -3 0 -2 -4 1 -10z"/>
<path d="M4521 1484 c0 -11 3 -14 6 -6 3 7 2 16 -1 19 -3 4 -6 -2 -5 -13z"/>
<path d="M4534 1458 c-3 -5 -3 -12 0 -15 3 -4 6 -2 6 3 0 5 8 10 19 11 14 1
18 -3 13 -20 -3 -12 -2 -20 1 -17 3 3 7 14 9 25 2 15 -3 20 -20 21 -12 1 -25
-3 -28 -8z"/>
<path d="M4513 1435 c2 -11 9 -19 15 -17 7 1 12 -7 12 -18 0 -11 -5 -19 -12
-17 -6 1 -13 -7 -15 -18 -3 -18 -2 -18 5 -2 4 10 12 18 17 18 6 -1 10 8 10 19
0 11 -4 20 -10 19 -5 0 -13 8 -17 18 -7 16 -8 16 -5 -2z"/>
<path d="M4596 1434 c-9 -24 -2 -26 12 -4 7 11 8 20 3 20 -5 0 -12 -7 -15 -16z"/>
<path d="M4476 1425 c-9 -26 -7 -32 5 -12 6 10 9 21 6 23 -2 3 -7 -2 -11 -11z"/>
<path d="M4490 1400 c0 -5 5 -10 10 -10 6 0 10 5 10 10 0 6 -4 10 -10 10 -5 0
-10 -4 -10 -10z"/>
<path d="M4456 1381 c-11 -18 2 -46 22 -45 14 0 20 -5 19 -18 -1 -10 -7 -18
-14 -18 -7 0 -13 -5 -13 -10 0 -7 6 -7 19 -1 26 14 23 57 -4 53 -15 -2 -21 4
-22 18 -2 18 1 19 13 10 8 -8 14 -8 14 -2 0 13 -28 24 -34 13z"/>
<path d="M4556 1373 c-6 -14 -5 -15 5 -6 7 7 10 15 7 18 -3 3 -9 -2 -12 -12z"/>
<path d="M4534 1349 c3 -15 36 -21 36 -7 0 6 -6 8 -14 5 -8 -3 -17 -2 -20 4
-2 5 -3 4 -2 -2z"/>
<path d="M4442 1324 c10 -10 20 -16 22 -13 3 3 -5 11 -17 18 -21 13 -21 12 -5
-5z"/>
<path d="M4413 1317 c1 -10 6 -17 12 -17 5 1 13 -7 17 -17 7 -17 8 -17 5 0 -1
10 -6 17 -12 17 -5 -1 -13 7 -17 17 -7 17 -8 17 -5 0z"/>
<path d="M4521 1314 c0 -11 3 -14 6 -6 3 7 2 16 -1 19 -3 4 -6 -2 -5 -13z"/>
<path d="M4550 1310 c0 -5 5 -10 11 -10 5 0 7 5 4 10 -3 6 -8 10 -11 10 -2 0
-4 -4 -4 -10z"/>
<path d="M4497 1278 c-7 -5 0 -6 17 -4 16 3 31 7 33 10 8 8 -37 2 -50 -6z"/>
<path d="M4420 1269 c0 -5 -4 -8 -8 -5 -4 2 -14 0 -22 -5 -11 -7 -9 -8 9 -6
21 3 45 27 27 27 -3 0 -6 -5 -6 -11z"/>
<path d="M4456 1261 c-12 -19 2 -46 24 -46 13 0 26 -7 28 -14 3 -9 0 -11 -8
-6 -9 6 -11 4 -5 -4 5 -9 10 -10 18 -2 14 14 -9 40 -31 34 -12 -3 -18 2 -19
17 -2 18 1 19 13 10 8 -8 14 -8 14 -2 0 13 -28 24 -34 13z"/>
<path d="M4535 1260 c-3 -5 -1 -10 4 -10 6 0 11 5 11 10 0 6 -2 10 -4 10 -3 0
-8 -4 -11 -10z"/>
<path d="M4510 1246 c0 -8 4 -17 9 -20 5 -4 7 3 4 14 -6 23 -13 26 -13 6z"/>
<path d="M4431 1234 c0 -11 3 -14 6 -6 3 7 2 16 -1 19 -3 4 -6 -2 -5 -13z"/>
<path d="M4390 1231 c-8 -6 -17 -8 -21 -5 -4 2 -11 0 -14 -6 -4 -6 -1 -9 7 -8
7 2 13 -5 13 -15 0 -10 8 -23 18 -28 11 -7 17 -7 17 1 0 5 -6 10 -13 10 -7 0
-13 9 -13 20 0 11 6 20 13 20 7 0 13 5 13 10 0 12 -1 12 -20 1z"/>
<path d="M4410 1200 c0 -5 5 -10 10 -10 6 0 10 5 10 10 0 6 -4 10 -10 10 -5 0
-10 -4 -10 -10z"/>
<path d="M4459 1188 c-8 -29 -5 -48 8 -59 9 -8 14 -9 10 -3 -4 7 0 17 8 24 12
10 13 16 4 26 -10 12 -28 19 -30 12z m25 -17 c3 -5 -1 -14 -9 -21 -11 -9 -14
-8 -12 9 1 22 12 28 21 12z"/>
<path d="M4431 1164 c0 -11 3 -14 6 -6 3 7 2 16 -1 19 -3 4 -6 -2 -5 -13z"/>
<path d="M4350 1160 c-13 -8 -12 -10 3 -10 9 0 17 5 17 10 0 12 -1 12 -20 0z"/>
<path d="M4377 1142 c-2 -4 -3 -16 -3 -27 1 -14 8 -20 26 -20 34 0 37 46 3 51
-12 2 -24 0 -26 -4z m40 -23 c-1 -10 -9 -17 -18 -16 -10 1 -17 9 -16 18 1 10
9 17 18 16 10 -1 17 -9 16 -18z"/>
<path d="M4310 1112 c6 -12 15 -20 20 -17 5 3 8 -4 7 -15 -1 -11 -7 -20 -14
-20 -7 0 -13 -5 -13 -10 0 -7 6 -7 19 -1 17 9 25 55 9 49 -4 -2 -14 6 -23 17
-16 19 -16 19 -5 -3z"/>
<path d="M4345 1120 c3 -5 8 -10 11 -10 2 0 4 5 4 10 0 6 -5 10 -11 10 -5 0
-7 -4 -4 -10z"/>
<path d="M4440 1121 c0 -5 7 -12 16 -15 14 -5 15 -4 4 9 -14 17 -20 19 -20 6z"/>
<path d="M4290 1080 c0 -5 5 -10 10 -10 6 0 10 5 10 10 0 6 -4 10 -10 10 -5 0
-10 -4 -10 -10z"/>
<path d="M4361 1074 c0 -11 3 -14 6 -6 3 7 2 16 -1 19 -3 4 -6 -2 -5 -13z"/>
<path d="M4430 1086 c0 -2 7 -6 15 -10 8 -3 15 -1 15 4 0 6 -7 10 -15 10 -8 0
-15 -2 -15 -4z"/>
<path d="M4390 1069 c0 -5 5 -7 10 -4 6 3 10 8 10 11 0 2 -4 4 -10 4 -5 0 -10
-5 -10 -11z"/>
<path d="M4417 1064 c-3 -3 -3 -13 0 -22 5 -11 3 -13 -7 -7 -9 5 -11 4 -6 -4
10 -15 29 -3 22 14 -3 8 0 16 7 19 7 3 8 5 1 5 -6 1 -13 -2 -17 -5z"/>
<path d="M4281 1044 c0 -11 3 -14 6 -6 3 7 2 16 -1 19 -3 4 -6 -2 -5 -13z"/>
<path d="M4370 1040 c0 -5 5 -10 10 -10 6 0 10 5 10 10 0 6 -4 10 -10 10 -5 0
-10 -4 -10 -10z"/>
<path d="M4260 1031 c0 -7 -5 -9 -12 -5 -7 5 -8 3 -3 -5 5 -9 10 -10 18 -2 6
6 8 14 4 18 -4 3 -7 1 -7 -6z"/>
<path d="M4295 1021 c-11 -19 4 -46 26 -46 19 0 24 6 24 25 0 19 -6 25 -23 26
-12 1 -24 -2 -27 -5z m42 -20 c1 -9 -6 -17 -16 -18 -9 -1 -17 6 -18 16 -1 9 6
17 16 18 9 1 17 -6 18 -16z"/>
<path d="M4361 1004 c0 -11 3 -14 6 -6 3 7 2 16 -1 19 -3 4 -6 -2 -5 -13z"/>
<path d="M4390 1010 c0 -5 5 -10 11 -10 5 0 7 5 4 10 -3 6 -8 10 -11 10 -2 0
-4 -4 -4 -10z"/>
<path d="M4271 994 c0 -11 3 -14 6 -6 3 7 2 16 -1 19 -3 4 -6 -2 -5 -13z"/>
<path d="M4230 990 c0 -5 5 -10 10 -10 6 0 10 5 10 10 0 6 -4 10 -10 10 -5 0
-10 -4 -10 -10z"/>
<path d="M4374 976 c-3 -9 -9 -14 -13 -12 -4 3 -7 -5 -8 -17 0 -12 1 -16 4 -9
3 6 10 9 16 5 7 -3 9 -3 5 2 -4 4 -3 14 4 22 6 7 8 16 5 20 -4 3 -9 -2 -13
-11z"/>
<path d="M4210 960 c0 -5 5 -10 10 -10 6 0 10 5 10 10 0 6 -4 10 -10 10 -5 0
-10 -4 -10 -10z"/>
<path d="M4250 960 c0 -5 5 -10 10 -10 6 0 10 5 10 10 0 6 -4 10 -10 10 -5 0
-10 -4 -10 -10z"/>
<path d="M4311 951 c-17 -11 -25 -48 -12 -56 5 -3 13 0 17 6 5 8 3 9 -5 5 -8
-6 -11 -2 -9 10 2 11 12 24 23 31 11 7 16 12 10 12 -5 1 -16 -3 -24 -8z"/>
<path d="M4201 924 c0 -11 3 -14 6 -6 3 7 2 16 -1 19 -3 4 -6 -2 -5 -13z"/>
<path d="M4230 930 c0 -5 5 -10 10 -10 6 0 10 5 10 10 0 6 -4 10 -10 10 -5 0
-10 -4 -10 -10z"/>
<path d="M4271 924 c0 -11 3 -14 6 -6 3 7 2 16 -1 19 -3 4 -6 -2 -5 -13z"/>
<path d="M4215 899 c-3 -4 -2 -15 2 -25 4 -11 2 -15 -4 -11 -5 4 -19 0 -29 -9
-18 -14 -17 -14 6 -3 14 7 27 13 30 13 3 1 4 8 3 16 -1 10 6 16 17 16 11 0 20
-6 20 -13 0 -16 16 -17 26 -1 4 6 3 8 -4 4 -5 -3 -12 -1 -14 6 -5 13 -46 19
-53 7z"/>
<path d="M4314 875 c-4 -8 -11 -12 -17 -8 -6 3 -7 1 -3 -5 10 -16 14 -15 26 8
6 11 8 20 5 20 -3 0 -8 -7 -11 -15z"/>
<path d="M4239 863 c0 -5 -3 -19 -5 -32 -2 -14 -2 -22 1 -19 8 8 17 58 10 58
-3 0 -5 -3 -6 -7z"/>
<path d="M4100 850 c0 -5 0 -13 1 -17 0 -5 -10 -11 -23 -15 l-23 -7 24 2 c17
1 25 9 27 25 2 12 2 22 -1 22 -3 0 -5 -4 -5 -10z"/>
<path d="M4121 834 c0 -11 3 -14 6 -6 3 7 2 16 -1 19 -3 4 -6 -2 -5 -13z"/>
<path d="M4260 846 c0 -2 7 -6 15 -10 8 -3 15 -1 15 4 0 6 -7 10 -15 10 -8 0
-15 -2 -15 -4z"/>
<path d="M4150 830 c0 -5 6 -10 13 -10 7 0 13 -9 13 -20 0 -13 -6 -18 -20 -17
-15 2 -20 -4 -21 -23 0 -21 4 -24 24 -22 13 2 21 0 18 -5 -3 -5 -1 -15 4 -23
7 -11 8 -8 5 10 -2 18 -9 25 -24 24 -14 0 -20 5 -19 17 1 11 8 17 21 16 26 -3
30 40 4 54 -12 6 -18 6 -18 -1z"/>
<path d="M4198 833 c7 -3 16 -2 19 1 4 3 -2 6 -13 5 -11 0 -14 -3 -6 -6z"/>
<path d="M4254 815 c-3 -8 -4 -20 -1 -27 3 -7 6 -3 6 10 1 15 5 21 13 16 7 -4
8 -3 4 4 -10 16 -15 15 -22 -3z"/>
<path d="M4097 798 c-7 -5 0 -6 17 -4 16 3 31 7 33 10 8 8 -37 2 -50 -6z"/>
<path d="M4200 800 c0 -5 5 -10 10 -10 6 0 10 5 10 10 0 6 -4 10 -10 10 -5 0
-10 -4 -10 -10z"/>
<path d="M4036 765 c-3 -8 -1 -15 4 -15 6 0 10 7 10 15 0 8 -2 15 -4 15 -2 0
-6 -7 -10 -15z"/>
<path d="M4070 770 c0 -5 5 -10 10 -10 6 0 10 5 10 10 0 6 -4 10 -10 10 -5 0
-10 -4 -10 -10z"/>
<path d="M4111 764 c0 -11 3 -14 6 -6 3 7 2 16 -1 19 -3 4 -6 -2 -5 -13z"/>
<path d="M4190 760 c0 -5 7 -7 15 -4 8 4 15 8 15 10 0 2 -7 4 -15 4 -8 0 -15
-4 -15 -10z"/>
<path d="M4004 739 c-4 -7 -3 -9 4 -5 7 4 10 -1 9 -14 -1 -21 -12 -27 -20 -10
-3 6 -4 5 -3 -2 4 -22 29 -15 32 9 4 25 -11 39 -22 22z"/>
<path d="M4049 728 c-6 -12 -6 -18 1 -18 5 0 10 6 10 14 0 16 31 16 43 1 5 -6
7 -4 5 4 -6 21 -47 21 -59 -1z"/>
<path d="M4120 717 c0 -9 -6 -16 -12 -14 -8 1 -13 -8 -13 -23 0 -16 5 -24 14
-22 9 2 11 -3 7 -15 -4 -11 1 -9 14 7 22 28 25 40 10 40 -5 0 -9 -5 -7 -11 1
-6 -6 -13 -15 -14 -12 -2 -18 3 -18 16 0 11 5 17 10 14 11 -7 26 22 16 32 -3
4 -6 -1 -6 -10z"/>
<path d="M4075 709 c-4 -6 -5 -12 -2 -15 2 -3 7 2 10 11 7 17 1 20 -8 4z"/>
<path d="M4150 711 c0 -5 5 -13 10 -16 6 -3 10 -2 10 4 0 5 -4 13 -10 16 -5 3
-10 2 -10 -4z"/>
<path d="M3970 680 c0 -5 5 -10 10 -10 6 0 10 5 10 10 0 6 -4 10 -10 10 -5 0
-10 -4 -10 -10z"/>
<path d="M4038 683 c7 -3 16 -2 19 1 4 3 -2 6 -13 5 -11 0 -14 -3 -6 -6z"/>
<path d="M3929 657 c-9 -7 -14 -18 -11 -25 2 -7 -2 -11 -9 -10 -21 5 -19 -41
2 -53 13 -6 19 -6 19 1 0 5 -6 10 -13 10 -7 0 -13 9 -14 20 -1 11 2 18 8 15 5
-4 12 2 16 12 4 10 11 21 17 25 6 4 8 9 6 12 -3 2 -12 -1 -21 -7z"/>
<path d="M4015 661 c-3 -5 0 -13 6 -17 8 -5 9 -3 5 5 -6 8 -2 11 10 9 11 -2
24 -11 30 -22 10 -17 12 -17 17 -2 4 10 3 15 -2 11 -5 -3 -11 0 -13 7 -5 14
-45 21 -53 9z"/>
<path d="M3956 644 c-7 -19 2 -37 15 -29 5 4 9 -3 9 -15 0 -12 -4 -19 -9 -16
-5 3 -16 -5 -25 -19 -9 -13 -12 -26 -8 -29 13 -8 43 0 52 13 5 9 10 10 14 2 4
-6 12 -11 17 -11 6 0 3 8 -7 17 -14 15 -18 15 -28 2 -6 -8 -19 -15 -29 -17
-15 -3 -16 0 -5 17 6 11 17 19 22 18 6 -1 11 9 11 23 0 15 -5 24 -13 22 -9 -2
-11 4 -7 18 7 24 0 27 -9 4z"/>
<path d="M3990 645 c0 -8 4 -15 10 -15 5 0 7 7 4 15 -4 8 -8 15 -10 15 -2 0
-4 -7 -4 -15z"/>
<path d="M3856 623 c-6 -14 -5 -15 5 -6 7 7 10 15 7 18 -3 3 -9 -2 -12 -12z"/>
<path d="M4040 632 c0 -7 -5 -11 -12 -9 -17 3 -22 -31 -8 -48 13 -16 34 -10
24 6 -3 5 -10 7 -15 4 -5 -4 -9 3 -9 15 0 12 4 19 9 15 11 -6 26 13 17 22 -3
4 -6 1 -6 -5z"/>
<path d="M1330 601 c0 -6 4 -13 10 -16 6 -3 7 1 4 9 -7 18 -14 21 -14 7z"/>
<path d="M3871 594 c0 -11 3 -14 6 -6 3 7 2 16 -1 19 -3 4 -6 -2 -5 -13z"/>
<path d="M3930 600 c0 -5 5 -10 10 -10 6 0 10 5 10 10 0 6 -4 10 -10 10 -5 0
-10 -4 -10 -10z"/>
<path d="M4050 600 c0 -5 5 -10 10 -10 6 0 10 5 10 10 0 6 -4 10 -10 10 -5 0
-10 -4 -10 -10z"/>
<path d="M1370 560 c0 -5 5 -10 10 -10 6 0 10 5 10 10 0 6 -4 10 -10 10 -5 0
-10 -4 -10 -10z"/>
<path d="M3850 560 c0 -5 5 -10 10 -10 6 0 10 5 10 10 0 6 -4 10 -10 10 -5 0
-10 -4 -10 -10z"/>
<path d="M1396 542 c-3 -5 4 -16 15 -25 10 -9 19 -12 19 -7 0 6 -7 13 -15 16
-8 4 -12 10 -9 15 3 5 3 9 0 9 -3 0 -7 -4 -10 -8z"/>
<path d="M3779 543 c-1 -4 -1 -12 0 -17 1 -5 -5 -6 -14 -3 -8 4 -15 2 -15 -4
0 -6 8 -9 18 -7 9 2 16 10 15 16 -2 7 6 12 17 12 11 0 19 -6 18 -12 -2 -7 3
-13 11 -13 8 0 15 6 17 13 1 7 0 8 -3 2 -7 -14 -24 -13 -20 2 1 7 -8 14 -20
16 -13 2 -24 0 -24 -5z"/>
<path d="M3897 543 c-8 -17 -1 -48 11 -45 18 3 14 -26 -5 -37 -10 -6 -13 -11
-7 -11 18 0 37 28 30 46 -3 8 -11 12 -17 9 -13 -9 -8 27 6 37 6 5 6 8 -2 8 -6
0 -14 -3 -16 -7z"/>
<path d="M3871 524 c0 -11 3 -14 6 -6 3 7 2 16 -1 19 -3 4 -6 -2 -5 -13z"/>
<path d="M3927 519 c7 -7 15 -10 18 -7 3 3 -2 9 -12 12 -14 6 -15 5 -6 -5z"/>
<path d="M1447 508 c-4 -13 -1 -16 14 -13 15 3 19 0 15 -11 -3 -8 -2 -13 3 -9
5 3 11 0 13 -7 3 -7 7 -5 11 6 4 9 3 15 -2 12 -5 -3 -12 1 -15 10 -3 8 -10 13
-15 10 -5 -4 -11 -1 -13 6 -3 8 -7 6 -11 -4z"/>
<path d="M3693 493 c-3 -7 -9 -10 -14 -7 -5 3 -6 -2 -3 -11 4 -10 2 -15 -7
-13 -18 4 -20 -42 -3 -49 8 -3 11 -10 7 -16 -3 -6 -1 -7 5 -3 16 10 15 26 -1
26 -7 0 -13 9 -14 20 -1 11 2 18 8 15 5 -4 14 4 20 17 6 13 19 25 30 25 12 1
17 -3 13 -9 -4 -7 -2 -8 5 -4 6 4 9 11 6 16 -8 13 -47 8 -52 -7z"/>
<path d="M3790 500 c0 -5 5 -10 10 -10 6 0 10 5 10 10 0 6 -4 10 -10 10 -5 0
-10 -4 -10 -10z"/>
<path d="M3835 493 c-11 -8 -19 -18 -18 -23 2 -5 -6 -8 -17 -7 -11 1 -20 7
-20 14 0 16 -16 17 -26 1 -4 -6 -3 -8 3 -5 6 4 13 1 16 -7 6 -15 53 -16 50 0
-1 5 7 16 18 22 17 11 20 10 17 -5 -2 -10 -10 -24 -18 -31 -13 -11 -12 -12 5
-3 20 9 31 46 17 55 -4 2 -16 -2 -27 -11z"/>
<path d="M3880 480 c0 -5 5 -10 11 -10 5 0 7 5 4 10 -3 6 -8 10 -11 10 -2 0
-4 -4 -4 -10z"/>
<path d="M3713 470 c2 -8 10 -14 16 -12 6 1 11 -7 11 -18 0 -11 -5 -19 -12
-17 -6 1 -14 -6 -16 -15 -2 -10 1 -18 7 -18 6 0 8 7 4 15 -3 10 0 15 8 13 9
-2 14 6 14 20 0 12 -4 22 -9 21 -5 0 -13 5 -18 13 -8 10 -9 10 -5 -2z"/>
<path d="M1515 461 c3 -5 0 -11 -7 -13 -7 -3 -5 -7 6 -11 9 -4 15 -3 11 2 -3
5 0 11 7 13 7 3 5 7 -6 11 -9 4 -15 3 -11 -2z"/>
<path d="M1546 434 c-9 -24 -2 -26 12 -4 7 11 8 20 3 20 -5 0 -12 -7 -15 -16z"/>
<path d="M3631 434 c0 -11 3 -14 6 -6 3 7 2 16 -1 19 -3 4 -6 -2 -5 -13z"/>
<path d="M3690 440 c0 -5 5 -10 10 -10 6 0 10 5 10 10 0 6 -4 10 -10 10 -5 0
-10 -4 -10 -10z"/>
<path d="M3870 440 c0 -5 5 -10 11 -10 5 0 7 5 4 10 -3 6 -8 10 -11 10 -2 0
-4 -4 -4 -10z"/>
<path d="M3590 430 c-13 -8 -12 -10 3 -10 9 0 17 5 17 10 0 12 -1 12 -20 0z"/>
<path d="M3788 433 c7 -3 16 -2 19 1 4 3 -2 6 -13 5 -11 0 -14 -3 -6 -6z"/>
<path d="M1565 419 c-5 -8 -4 -10 3 -5 8 5 12 -1 13 -16 1 -18 2 -19 6 -4 6
23 -12 43 -22 25z"/>
<path d="M3757 415 c-8 -20 9 -28 30 -15 16 9 15 10 -4 5 -18 -5 -22 -3 -17 9
3 9 4 16 1 16 -3 0 -7 -7 -10 -15z"/>
<path d="M3816 422 c-2 -4 0 -14 6 -22 8 -12 9 -12 4 2 -3 12 2 18 17 21 l22
4 -22 2 c-12 0 -24 -3 -27 -7z"/>
<path d="M3530 411 c0 -10 19 -25 25 -20 1 2 -3 10 -11 17 -8 7 -14 8 -14 3z"/>
<path d="M1641 394 c0 -11 3 -14 6 -6 3 7 2 16 -1 19 -3 4 -6 -2 -5 -13z"/>
<path d="M3574 393 c2 -9 8 -18 15 -19 6 -1 7 0 2 2 -6 3 -7 12 -4 20 3 8 1
14 -5 14 -6 0 -9 -8 -8 -17z"/>
<path d="M3605 400 c-3 -6 1 -7 9 -4 18 7 21 14 7 14 -6 0 -13 -4 -16 -10z"/>
<path d="M1670 395 c0 -5 5 -17 10 -25 5 -8 10 -10 10 -5 0 6 -5 17 -10 25 -5
8 -10 11 -10 5z"/>
<path d="M1615 381 c-6 -11 13 -26 22 -17 4 3 1 6 -6 6 -7 0 -9 5 -6 10 3 6 4
10 1 10 -3 0 -7 -4 -11 -9z"/>
<path d="M3510 380 c0 -5 5 -10 10 -10 6 0 10 5 10 10 0 6 -4 10 -10 10 -5 0
-10 -4 -10 -10z"/>
<path d="M3615 381 c-3 -6 -3 -11 2 -12 4 0 -1 -5 -12 -10 l-20 -9 20 3 c11 2
19 9 18 15 -2 7 6 12 17 12 11 0 19 -5 18 -11 -2 -6 4 -14 12 -16 12 -4 12 -3
2 5 -8 5 -12 13 -10 18 4 13 -39 17 -47 5z"/>
<path d="M3684 379 c-4 -7 -3 -9 4 -5 6 4 10 -1 9 -13 0 -11 -12 -24 -25 -30
-13 -6 -21 -15 -17 -20 3 -5 1 -12 -5 -16 -5 -3 -10 -1 -10 6 0 7 -3 10 -6 6
-3 -3 -3 -11 1 -17 5 -8 11 -8 21 1 7 6 11 16 7 22 -4 6 0 8 11 4 9 -4 15 -3
11 2 -3 5 0 11 7 13 14 5 21 45 9 53 -5 3 -13 0 -17 -6z"/>
<path d="M3731 373 c-6 -12 -6 -25 0 -34 7 -12 9 -12 10 1 1 8 0 22 -1 29 -1
12 1 13 14 2 12 -10 19 -10 38 3 12 9 18 16 12 16 -5 0 -15 -5 -22 -12 -8 -8
-15 -8 -26 1 -12 10 -17 9 -25 -6z"/>
<path d="M1710 365 c0 -8 4 -15 10 -15 5 0 7 7 4 15 -4 8 -8 15 -10 15 -2 0
-4 -7 -4 -15z"/>
<path d="M3470 370 c8 -5 20 -10 25 -10 6 0 3 5 -5 10 -8 5 -19 10 -25 10 -5
0 -3 -5 5 -10z"/>
<path d="M1650 360 c0 -5 5 -10 10 -10 6 0 10 5 10 10 0 6 -4 10 -10 10 -5 0
-10 -4 -10 -10z"/>
<path d="M3548 363 c7 -3 16 -2 19 1 4 3 -2 6 -13 5 -11 0 -14 -3 -6 -6z"/>
<path d="M3428 353 c7 -3 16 -2 19 1 4 3 -2 6 -13 5 -11 0 -14 -3 -6 -6z"/>
<path d="M1680 339 c-13 -9 -13 -10 0 -6 8 2 21 -3 28 -12 11 -14 11 -13 2 7
-12 25 -11 25 -30 11z"/>
<path d="M1734 336 c-8 -20 3 -49 15 -42 5 4 12 1 14 -4 3 -6 4 -5 3 2 -2 7
-9 12 -15 11 -6 -2 -11 7 -11 19 0 20 1 21 20 3 11 -10 22 -16 24 -14 2 2 -7
12 -20 22 -21 16 -25 16 -30 3z"/>
<path d="M1777 339 c7 -7 15 -10 18 -7 3 3 -2 9 -12 12 -14 6 -15 5 -6 -5z"/>
<path d="M3396 333 c-6 -14 -5 -15 5 -6 7 7 10 15 7 18 -3 3 -9 -2 -12 -12z"/>
<path d="M3459 345 c-8 -35 -1 -50 21 -50 34 0 36 46 3 51 -13 2 -23 2 -24 -1z
m41 -25 c0 -9 -8 -16 -18 -17 -11 -1 -18 5 -18 17 0 12 7 18 18 17 10 -1 18
-8 18 -17z"/>
<path d="M3533 334 c-9 -23 4 -41 28 -40 18 1 23 7 23 26 0 19 -5 25 -23 26
-12 1 -25 -5 -28 -12z m43 -14 c0 -12 -7 -18 -18 -17 -10 1 -18 8 -18 17 0 9
8 16 18 17 11 1 18 -5 18 -17z"/>
<path d="M3630 340 c0 -5 5 -10 10 -10 6 0 10 5 10 10 0 6 -4 10 -10 10 -5 0
-10 -4 -10 -10z"/>
<path d="M1805 320 c-3 -6 1 -7 9 -4 18 7 21 14 7 14 -6 0 -13 -4 -16 -10z"/>
<path d="M3420 320 c0 -5 5 -10 10 -10 6 0 10 5 10 10 0 6 -4 10 -10 10 -5 0
-10 -4 -10 -10z"/>
<path d="M3600 320 c0 -5 5 -10 10 -10 6 0 10 5 10 10 0 6 -4 10 -10 10 -5 0
-10 -4 -10 -10z"/>
<path d="M3351 311 c-17 -11 -25 -48 -12 -56 5 -3 13 0 17 6 5 8 3 9 -5 5 -8
-6 -11 -2 -9 10 2 11 12 24 23 31 11 7 16 12 10 12 -5 1 -16 -3 -24 -8z"/>
<path d="M1817 303 c-2 -5 -3 -17 -3 -28 1 -14 7 -19 20 -17 13 2 16 -1 10
-10 -6 -10 -4 -10 9 1 18 15 23 41 7 41 -5 0 -7 -6 -4 -13 3 -8 -3 -13 -16
-13 -23 0 -23 27 0 38 13 5 12 7 -2 7 -9 1 -19 -2 -21 -6z"/>
<path d="M3390 300 c0 -5 5 -10 10 -10 6 0 10 5 10 10 0 6 -4 10 -10 10 -5 0
-10 -4 -10 -10z"/>
<path d="M1786 283 c-6 -14 -5 -15 5 -6 7 7 10 15 7 18 -3 3 -9 -2 -12 -12z"/>
<path d="M1896 291 c-3 -5 5 -16 19 -25 26 -17 47 -4 26 17 -9 9 -11 8 -5 -6
6 -17 5 -18 -14 -6 -11 7 -18 17 -16 21 3 4 3 8 0 8 -3 0 -7 -4 -10 -9z"/>
<path d="M3310 291 c0 -7 -4 -9 -10 -6 -6 4 -7 -1 -3 -11 6 -15 4 -15 -20 1
-15 9 -27 15 -27 12 0 -2 11 -12 25 -21 23 -15 25 -15 35 5 7 11 9 23 6 27 -3
3 -6 0 -6 -7z"/>
<path d="M3368 282 c8 -5 13 -13 13 -18 -1 -5 8 -9 19 -9 11 0 20 4 19 10 0 5
8 13 18 17 16 7 16 8 -2 5 -11 -2 -19 -9 -17 -15 1 -7 -7 -12 -18 -12 -11 0
-19 5 -17 11 1 6 -5 14 -13 16 -12 4 -12 3 -2 -5z"/>
<path d="M3590 286 c0 -2 7 -6 15 -10 8 -3 15 -1 15 4 0 6 -7 10 -15 10 -8 0
-15 -2 -15 -4z"/>
<path d="M3478 273 c7 -3 16 -2 19 1 4 3 -2 6 -13 5 -11 0 -14 -3 -6 -6z"/>
<path d="M3548 273 c7 -3 16 -2 19 1 4 3 -2 6 -13 5 -11 0 -14 -3 -6 -6z"/>
<path d="M1872 249 c-8 -12 -9 -18 -4 -15 6 3 12 0 15 -6 2 -7 4 -1 4 15 0 15
0 27 -1 27 -1 0 -7 -9 -14 -21z"/>
<path d="M1974 259 c-3 -6 -3 -13 0 -16 3 -4 6 -1 6 5 0 6 7 9 15 6 8 -4 15
-4 15 -1 0 11 -30 16 -36 6z"/>
<path d="M3230 260 c0 -5 5 -10 10 -10 6 0 10 5 10 10 0 6 -4 10 -10 10 -5 0
-10 -4 -10 -10z"/>
<path d="M3445 263 c6 -4 10 -15 10 -23 0 -8 -4 -19 -10 -23 -6 -5 -4 -7 5 -5
8 3 14 15 14 28 0 13 -6 25 -14 28 -9 2 -11 0 -5 -5z"/>
<path d="M3510 260 c0 -5 5 -10 10 -10 6 0 10 5 10 10 0 6 -4 10 -10 10 -5 0
-10 -4 -10 -10z"/>
<path d="M3140 249 c0 -5 -4 -8 -9 -4 -5 3 -13 0 -17 -6 -4 -7 -3 -9 3 -6 6 4
13 1 16 -7 7 -16 53 -15 50 2 -2 7 6 12 17 12 11 0 19 -5 18 -12 -4 -17 42
-18 49 -2 3 8 10 11 16 7 6 -3 7 -1 3 5 -10 16 -26 15 -26 -1 0 -7 -9 -13 -20
-14 -11 -1 -19 4 -17 10 1 7 -9 12 -23 12 -14 0 -24 -5 -23 -12 2 -6 -6 -11
-17 -10 -14 1 -18 6 -14 19 3 10 3 18 0 18 -3 0 -6 -5 -6 -11z"/>
<path d="M3550 250 c-9 -6 -10 -10 -3 -10 6 0 15 5 18 10 8 12 4 12 -15 0z"/>
<path d="M1908 243 c6 -2 12 -9 12 -14 0 -6 -5 -7 -12 -3 -7 5 -8 3 -3 -5 5
-9 11 -9 17 -3 12 12 2 32 -15 31 -9 0 -9 -2 1 -6z"/>
<path d="M1953 235 c2 -11 9 -19 16 -17 9 2 12 -4 8 -18 -3 -11 -1 -20 5 -20
5 0 8 10 6 23 -2 12 -7 21 -13 19 -5 -2 -13 5 -17 15 -7 16 -8 16 -5 -2z"/>
<path d="M2041 233 c-5 -10 -13 -17 -18 -16 -4 2 -11 -9 -15 -22 -3 -14 -2
-23 3 -19 5 3 9 14 9 25 0 11 4 18 9 14 6 -3 15 4 21 15 13 24 5 27 -9 3z"/>
<path d="M3317 235 c3 -10 0 -15 -8 -13 -9 2 -14 -6 -14 -22 0 -15 5 -24 13
-22 9 2 12 -5 8 -20 -3 -13 -3 -17 0 -10 3 6 10 9 16 6 6 -4 5 3 -2 15 -6 12
-15 19 -21 16 -5 -4 -9 3 -9 14 0 12 5 20 12 19 6 -2 14 5 16 15 2 9 -1 17 -7
17 -6 0 -8 -7 -4 -15z"/>
<path d="M3357 243 c-4 -3 -7 -11 -7 -17 0 -6 5 -5 12 2 6 6 9 14 7 17 -3 3
-9 2 -12 -2z"/>
<path d="M3480 240 c0 -5 5 -10 10 -10 6 0 10 5 10 10 0 6 -4 10 -10 10 -5 0
-10 -4 -10 -10z"/>
<path d="M2070 229 c0 -5 5 -7 10 -4 6 3 10 8 10 11 0 2 -4 4 -10 4 -5 0 -10
-5 -10 -11z"/>
<path d="M2094 219 c-4 -7 -3 -9 4 -5 5 3 13 0 15 -6 4 -9 6 -10 6 -1 1 17
-16 25 -25 12z"/>
<path d="M2137 223 c-8 -17 -1 -48 10 -46 7 2 12 -5 10 -16 -1 -11 3 -21 8
-22 6 -1 15 -9 21 -17 9 -12 13 -12 19 -2 5 8 4 11 -2 7 -6 -4 -14 0 -17 9 -3
8 -10 12 -16 9 -6 -4 -9 4 -7 17 1 14 -3 22 -11 20 -8 -1 -11 6 -8 23 5 24 1
33 -7 18z"/>
<path d="M3057 217 c3 -5 14 -7 24 -4 14 4 19 0 19 -14 0 -10 -6 -18 -12 -16
-8 1 -12 -7 -11 -20 2 -14 -2 -22 -9 -20 -7 1 -14 -9 -15 -23 -2 -24 -2 -24 5
-2 4 13 12 23 17 23 6 0 9 9 8 20 -2 11 3 18 10 16 7 -1 12 8 12 22 0 19 -5
24 -27 25 -14 1 -24 -2 -21 -7z"/>
<path d="M3375 220 c-3 -5 -3 -10 2 -10 4 0 1 -5 -7 -11 -13 -9 -13 -10 0 -6
8 2 14 10 13 16 -2 6 6 11 16 11 14 0 18 -6 15 -22 -4 -21 -4 -21 5 -3 4 11 7
23 4 28 -6 10 -41 9 -48 -3z"/>
<path d="M2039 193 c-13 -17 -13 -17 6 -3 11 8 22 16 24 17 2 2 0 3 -6 3 -6 0
-17 -8 -24 -17z"/>
<path d="M2180 200 c-8 -5 -10 -10 -5 -10 6 0 17 5 25 10 8 5 11 10 5 10 -5 0
-17 -5 -25 -10z"/>
<path d="M2220 197 c0 -9 -5 -16 -12 -14 -6 1 -13 -6 -14 -16 -1 -12 0 -13 3
-2 2 8 9 13 14 9 11 -6 25 24 15 33 -3 4 -6 -1 -6 -10z"/>
<path d="M3012 193 c2 -10 10 -17 17 -15 9 2 11 -3 8 -13 -4 -8 -2 -15 4 -15
6 0 9 8 7 18 -2 9 -10 16 -17 14 -9 -2 -11 3 -8 13 4 8 2 15 -4 15 -6 0 -9 -8
-7 -17z"/>
<path d="M3047 199 c7 -7 15 -10 18 -7 3 3 -2 9 -12 12 -14 6 -15 5 -6 -5z"/>
<path d="M3330 200 c0 -5 5 -10 10 -10 6 0 10 5 10 10 0 6 -4 10 -10 10 -5 0
-10 -4 -10 -10z"/>
<path d="M2067 188 c-12 -10 -14 -17 -6 -28 9 -13 10 -13 6 0 -2 8 5 20 17 27
12 7 16 12 10 13 -5 0 -18 -6 -27 -12z"/>
<path d="M2252 192 c2 -8 7 -12 12 -10 4 2 13 -8 21 -21 7 -14 22 -26 33 -28
24 -3 38 12 21 23 -8 5 -9 3 -5 -5 6 -8 2 -11 -10 -9 -11 2 -24 12 -31 23 -6
11 -15 18 -19 17 -4 -2 -11 2 -16 10 -8 11 -9 11 -6 0z"/>
<path d="M2328 193 c6 -2 9 -10 6 -15 -4 -7 -2 -8 5 -4 13 9 5 26 -12 25 -9 0
-8 -2 1 -6z"/>
<path d="M2860 190 c0 -5 -5 -9 -12 -7 -6 1 -13 -7 -15 -18 -3 -18 -2 -18 5
-2 4 10 12 18 17 17 5 -1 11 3 13 9 2 6 1 11 -2 11 -3 0 -6 -4 -6 -10z"/>
<path d="M3148 193 c7 -3 16 -2 19 1 4 3 -2 6 -13 5 -11 0 -14 -3 -6 -6z"/>
<path d="M3238 193 c7 -3 16 -2 19 1 4 3 -2 6 -13 5 -11 0 -14 -3 -6 -6z"/>
<path d="M2110 183 c0 -6 8 -17 18 -24 16 -13 16 -13 2 6 -8 11 -16 22 -17 24
-2 2 -3 0 -3 -6z"/>
<path d="M2374 175 c-4 -8 -11 -12 -17 -8 -6 3 -7 1 -3 -5 10 -17 26 -15 26 4
0 9 5 12 12 8 7 -4 8 -3 4 4 -10 16 -15 15 -22 -3z"/>
<path d="M2755 180 c-3 -5 -1 -10 4 -10 6 0 11 5 11 10 0 6 -2 10 -4 10 -3 0
-8 -4 -11 -10z"/>
<path d="M2876 173 c-6 -14 -5 -15 5 -6 7 7 10 15 7 18 -3 3 -9 -2 -12 -12z"/>
<path d="M2935 181 c-3 -5 0 -13 6 -17 7 -4 9 -3 5 4 -4 6 1 10 13 9 11 0 24
-12 30 -25 6 -13 16 -20 21 -17 6 3 10 -3 10 -14 0 -12 -5 -20 -12 -19 -6 2
-13 -6 -15 -17 -3 -18 -2 -18 5 -2 4 10 12 18 17 18 6 -1 10 9 10 22 0 13 -5
21 -14 19 -9 -2 -11 3 -7 13 3 9 2 14 -3 10 -5 -3 -11 0 -13 7 -5 14 -45 21
-53 9z"/>
<path d="M3115 170 c-8 -24 2 -43 17 -34 8 5 9 1 5 -10 -4 -10 -3 -15 3 -11 6
3 10 1 10 -4 0 -6 4 -11 8 -11 5 0 9 7 9 15 0 8 -4 12 -8 10 -4 -3 -10 2 -13
11 -3 8 -11 12 -17 8 -9 -5 -10 1 -5 20 7 30 0 36 -9 6z"/>
<path d="M3179 188 c-11 -49 -4 -65 21 -46 12 8 12 9 -2 5 -12 -4 -16 0 -15
14 1 11 9 19 20 19 10 0 16 -4 13 -8 -2 -4 0 -14 5 -22 7 -11 8 -8 6 10 -3 17
-11 26 -25 28 -12 2 -22 2 -23 0z"/>
<path d="M3274 177 c5 -15 2 -17 -17 -12 -20 5 -20 5 -4 -6 23 -14 40 0 26 21
-9 12 -10 12 -5 -3z"/>
<path d="M3380 180 c-9 -6 -10 -10 -3 -10 6 0 15 5 18 10 8 12 4 12 -15 0z"/>
<path d="M2431 172 c-1 -8 -6 -10 -13 -6 -10 5 -10 4 -1 -6 15 -16 28 -8 20
12 -4 11 -6 11 -6 0z"/>
<path d="M2495 165 c4 -16 0 -21 -16 -22 -18 -2 -19 0 -7 15 12 15 11 16 -4 3
-21 -16 -14 -32 12 -28 28 4 33 13 20 34 -10 17 -11 17 -5 -2z"/>
<path d="M2555 170 c-3 -5 -1 -10 4 -10 6 0 11 5 11 10 0 6 -2 10 -4 10 -3 0
-8 -4 -11 -10z"/>
<path d="M2620 171 c0 -6 -9 -8 -20 -6 -12 2 -18 0 -15 -6 4 -5 10 -7 15 -4 4
3 10 -1 13 -9 7 -17 53 -15 49 3 -2 9 5 11 20 6 20 -5 21 -4 5 5 -18 12 -41 5
-32 -10 3 -5 -4 -8 -15 -7 -14 1 -18 6 -14 19 3 10 3 18 0 18 -3 0 -6 -4 -6
-9z"/>
<path d="M2081 167 c2 -1 15 -11 29 -22 l25 -20 -19 23 c-11 12 -24 22 -29 22
-6 0 -8 -1 -6 -3z"/>
<path d="M2716 154 c-9 -24 -2 -26 12 -4 7 11 8 20 3 20 -5 0 -12 -7 -15 -16z"/>
<path d="M2790 150 c6 -11 15 -18 20 -15 5 3 8 -3 7 -14 -1 -13 -8 -19 -20
-18 -15 2 -20 -5 -23 -28 -2 -24 -1 -27 7 -12 6 9 7 22 4 27 -4 6 4 9 17 7 18
-1 22 3 23 23 0 15 -5 24 -12 23 -7 -2 -13 4 -13 12 0 8 -5 15 -10 15 -7 0 -7
-7 0 -20z"/>
<path d="M2900 156 c0 -16 -31 -16 -43 -1 -5 6 -7 4 -5 -4 5 -19 48 -22 55 -4
3 7 10 10 16 6 6 -3 7 -1 3 5 -10 16 -26 15 -26 -2z"/>
<path d="M3145 160 c3 -5 8 -10 11 -10 2 0 4 5 4 10 0 6 -5 10 -11 10 -5 0 -7
-4 -4 -10z"/>
<path d="M2212 150 c3 -8 15 -14 28 -14 13 0 25 6 28 14 2 9 0 11 -5 5 -4 -5
-15 -10 -23 -10 -8 0 -19 5 -23 10 -5 6 -7 4 -5 -5z"/>
<path d="M2760 152 c0 -7 -5 -11 -11 -9 -6 1 -14 -4 -16 -10 -7 -18 22 -27 44
-14 15 9 13 10 -9 5 -18 -4 -28 -2 -28 6 0 6 4 9 9 5 11 -6 26 13 17 22 -3 4
-6 1 -6 -5z"/>
<path d="M2960 152 c0 -7 -5 -11 -12 -9 -20 4 -17 -43 3 -54 13 -6 19 -6 19 1
0 5 -6 10 -13 10 -7 0 -13 9 -14 20 -1 11 2 18 7 15 10 -6 25 14 16 22 -3 4
-6 1 -6 -5z"/>
<path d="M2390 140 c0 -5 5 -10 10 -10 6 0 10 5 10 10 0 6 -4 10 -10 10 -5 0
-10 -4 -10 -10z"/>
<path d="M2535 140 c-11 -18 4 -45 26 -45 18 0 24 5 24 24 0 18 -6 25 -23 26
-13 1 -25 -1 -27 -5z m42 -22 c-1 -10 -8 -18 -17 -18 -9 0 -16 8 -17 18 -1 11
5 18 17 18 12 0 18 -7 17 -18z"/>
<path d="M3236 133 c-6 -14 -5 -15 5 -6 7 7 10 15 7 18 -3 3 -9 -2 -12 -12z"/>
<path d="M2265 120 c-3 -5 -12 -7 -20 -3 -8 3 -15 1 -15 -5 0 -6 8 -9 18 -7 9
1 24 -3 32 -9 13 -10 13 -9 0 8 -14 18 -13 19 3 13 11 -4 16 -3 12 3 -8 13
-22 13 -30 0z"/>
<path d="M2358 123 c7 -3 16 -2 19 1 4 3 -2 6 -13 5 -11 0 -14 -3 -6 -6z"/>
<path d="M2428 123 c7 -3 16 -2 19 1 4 3 -2 6 -13 5 -11 0 -14 -3 -6 -6z"/>
<path d="M2511 114 c0 -11 3 -14 6 -6 3 7 2 16 -1 19 -3 4 -6 -2 -5 -13z"/>
<path d="M2601 114 c0 -11 3 -14 6 -6 3 7 2 16 -1 19 -3 4 -6 -2 -5 -13z"/>
<path d="M2678 123 c7 -3 16 -2 19 1 4 3 -2 6 -13 5 -11 0 -14 -3 -6 -6z"/>
<path d="M2841 114 c0 -11 3 -14 6 -6 3 7 2 16 -1 19 -3 4 -6 -2 -5 -13z"/>
<path d="M2911 114 c0 -11 3 -14 6 -6 3 7 2 16 -1 19 -3 4 -6 -2 -5 -13z"/>
<path d="M2970 120 c0 -5 5 -10 10 -10 6 0 10 5 10 10 0 6 -4 10 -10 10 -5 0
-10 -4 -10 -10z"/>
<path d="M3090 120 c0 -5 5 -10 10 -10 6 0 10 5 10 10 0 6 -4 10 -10 10 -5 0
-10 -4 -10 -10z"/>
<path d="M3195 120 c-3 -6 1 -7 9 -4 18 7 21 14 7 14 -6 0 -13 -4 -16 -10z"/>
<path d="M2306 104 c-5 -14 -4 -15 9 -4 17 14 19 20 6 20 -5 0 -12 -7 -15 -16z"/>
<path d="M2475 110 c3 -5 8 -10 11 -10 2 0 4 5 4 10 0 6 -5 10 -11 10 -5 0 -7
-4 -4 -10z"/>
<path d="M2630 109 c0 -5 5 -7 10 -4 6 3 10 8 10 11 0 2 -4 4 -10 4 -5 0 -10
-5 -10 -11z"/>
<path d="M2716 107 c3 -10 9 -15 12 -12 3 3 0 11 -7 18 -10 9 -11 8 -5 -6z"/>
<path d="M2870 110 c0 -5 5 -10 10 -10 6 0 10 5 10 10 0 6 -4 10 -10 10 -5 0
-10 -4 -10 -10z"/>
<path d="M2335 100 c-3 -5 0 -12 6 -16 8 -5 9 -3 5 5 -11 18 26 10 42 -9 11
-13 12 -12 3 5 -10 21 -46 31 -56 15z"/>
<path d="M2413 93 c-3 -8 -3 -17 1 -20 3 -4 6 0 6 8 0 8 8 15 19 16 11 1 18
-5 17 -14 0 -9 9 -17 24 -19 18 -3 21 -2 10 5 -8 5 -18 7 -23 4 -4 -3 -7 3 -5
13 4 23 -41 29 -49 7z"/>
<path d="M2655 101 c-3 -5 0 -13 6 -17 7 -4 9 -3 5 4 -4 7 1 10 14 9 21 -1 27
-12 10 -20 -6 -3 -5 -4 2 -3 7 2 13 9 13 16 0 15 -41 24 -50 11z"/>
<path d="M3074 102 c3 -5 0 -13 -6 -15 -9 -4 -10 -6 -1 -6 17 -1 25 16 12 25
-7 4 -9 3 -5 -4z"/>
<path d="M2500 80 c18 -12 30 -13 30 -2 0 4 -10 9 -22 9 -18 2 -20 0 -8 -7z"/>
<path d="M2610 80 c0 -5 5 -10 10 -10 6 0 10 5 10 10 0 6 -4 10 -10 10 -5 0
-10 -4 -10 -10z"/>
<path d="M2740 80 c0 -5 5 -10 10 -10 6 0 10 5 10 10 0 6 -4 10 -10 10 -5 0
-10 -4 -10 -10z"/>
<path d="M2835 81 c3 -2 -3 -10 -13 -18 -16 -13 -15 -13 3 -4 43 22 51 30 28
28 -12 0 -20 -3 -18 -6z"/>
<path d="M2890 81 c0 -5 7 -11 14 -14 10 -4 13 -1 9 9 -6 15 -23 19 -23 5z"/>
<path d="M2927 79 c7 -7 15 -10 18 -7 3 3 -2 9 -12 12 -14 6 -15 5 -6 -5z"/>
<path d="M3025 80 c-3 -6 1 -7 9 -4 18 7 21 14 7 14 -6 0 -13 -4 -16 -10z"/>
<path d="M2638 69 c-4 -11 1 -15 17 -15 13 0 21 4 19 8 -3 5 -9 6 -14 3 -4 -3
-10 0 -12 7 -3 8 -6 7 -10 -3z"/>
<path d="M2540 66 c0 -2 11 -6 25 -8 13 -3 22 -1 19 3 -5 9 -44 13 -44 5z"/>
<path d="M2710 60 c0 -5 5 -10 10 -10 6 0 10 5 10 10 0 6 -4 10 -10 10 -5 0
-10 -4 -10 -10z"/>
<path d="M2856 62 c-2 -4 4 -8 14 -8 10 0 16 4 14 8 -7 10 -21 10 -28 0z"/>
</g>
</svg>
